<svg xmlns="http://www.w3.org/2000/svg" width="183.32" height="35.01" viewBox="0 0 183.32 35.01"><defs><style>.cls-1{fill:#43d6a0;}.cls-2{fill:#fff;}</style></defs><title>newline-logo_1</title><g id="Layer_2" data-name="Layer 2"><g id="Layer_1-2" data-name="Layer 1"><polygon class="cls-1" points="10.58 22.94 2.28 30.8 0 28.4 5.77 22.94 0 17.48 2.28 15.07 10.58 22.94"/><rect class="cls-1" x="7.77" y="31.49" width="12.08" height="3.52"/><path class="cls-2" d="M28.85,34.58v-11a4.36,4.36,0,0,0-4.4-4.76,4.79,4.79,0,0,0-4.76,5.11V28H15.4V21.25c0-2.22-.08-2.85-2-2.73V15.75c2.73-.51,5.89-.66,5.89,2.92,1.05-2.38,3.94-3.27,6.39-3.27,5.11,0,7.45,3.51,7.45,8.15v11Z"/><path class="cls-2" d="M53.68,26H39.8c0,3.43,2.69,5.46,6.12,5.46a14.78,14.78,0,0,0,6.82-1.17l.55,3.16A17.93,17.93,0,0,1,46.19,35c-6.2.12-10.76-3.86-10.56-10.21s4.64-9.43,9.75-9.43C52,15.36,54.92,19.73,53.68,26Zm-13.8-3H50.25c.12-2.85-2.22-4.33-4.91-4.33S40.46,20,39.88,23Z"/><path class="cls-2" d="M61.71,34.77,54.3,16.26v-.47h4.56l2.38,6.47L63,27.4h.08l4.48-11.19h2.1l4.48,11.23h.12l1.79-5.18c.74-2.18,1.56-4.29,2.34-6.47H83v.47L75.54,34.77H73.63l-5-11.34-5,11.34Z"/><path class="cls-2" d="M90.59,6V27.83c0,3.12.82,4.09,4.05,3.59l.16,3.27c-5.77.94-8.42-.55-8.42-6.82V6Z"/><path class="cls-2" d="M100.1,7.49A2.42,2.42,0,0,1,102.63,10a2.55,2.55,0,0,1-5.11,0A2.43,2.43,0,0,1,100.1,7.49Zm2.1,27.09H98V16h4.25Z"/><path class="cls-2" d="M120.87,34.58v-11a4.36,4.36,0,0,0-4.4-4.76,4.79,4.79,0,0,0-4.76,5.11V34.58h-4.29V21.25c0-2.22-.08-2.85-2-2.73V15.75c2.73-.51,5.89-.66,5.89,2.92,1.05-2.38,3.94-3.27,6.39-3.27,5.11,0,7.45,3.51,7.45,8.15v11Z"/><path class="cls-2" d="M145.7,26H131.83c0,3.43,2.69,5.46,6.12,5.46a14.78,14.78,0,0,0,6.82-1.17l.55,3.16a17.93,17.93,0,0,1-7.09,1.6c-6.2.12-10.76-3.86-10.56-10.21s4.64-9.43,9.75-9.43C144,15.36,147,19.73,145.7,26Zm-13.8-3h10.37c.12-2.85-2.22-4.33-4.91-4.33S132.49,20,131.9,23Z"/><path class="cls-1" d="M146,14.4a1.61,1.61,0,0,0,1.63,1.6h34.08a1.61,1.61,0,0,0,1.63-1.6h0V1.6A1.61,1.61,0,0,0,181.69,0H147.61A1.61,1.61,0,0,0,146,1.6h0V14.41Z"/><path class="cls-2" d="M149.56,12V4h4.31a2.11,2.11,0,0,1,2.36,2.05,1.79,1.79,0,0,1-1.43,1.8,2,2,0,0,1,1.57,2A2.13,2.13,0,0,1,154.29,12h-4.73Zm4.88-5.69a.88.88,0,0,0-.88-.88h-2.27V7.2h2.19a.87.87,0,0,0,1-.87Zm.16,3.28a1,1,0,0,0-1-.94h-2.35v1.87h2.24a.92.92,0,0,0,1.07-.93Z"/><path class="cls-2" d="M158.3,12V4h5.79V5.48h-4V7.19h4V8.69h-4v1.83h4V12Z"/><path class="cls-2" d="M168,12V5.48h-2.4V4h6.52V5.48H169.7V12H168Z"/><path class="cls-2" d="M178.66,12l-.53-1.37h-3.47L174.13,12h-2l3.16-8h2.19l3.15,8Zm-2.25-6.33-1.33,3.45h2.55Z"/></g></g></svg>